<?xml version="1.0" encoding="UTF-8"?>
<svg version="1.1" viewBox="0 0 2000 2000" width="1280" height="1280" xmlns="http://www.w3.org/2000/svg">
<path transform="translate(0)" d="m0 0h2e3v2e3h-2e3z"/>
<path transform="translate(965,627)" d="m0 0h69l22 2 26 5 24 6 24 8 21 8 32 16 21 13 20 14 13 11 14 11 29 29 7 8 10 13 14 19 12 19 10 18 11 23 10 26 6 19 7 28 4 25 1 14v77l-2 22-6 29-8 27-9 25-12 26-10 19-15 24-16 21-9 11-12 14-15 15-8 7-10 9-17 13-15 11-28 17-24 12-33 13-19 6-29 7-25 4-14 1h-71l-23-2-31-6-23-6-25-9-30-13-15-8-26-16-18-13-11-9-13-11-13-12-15-15-9-11-10-12-14-19-17-28-15-30-9-23-8-24-7-28-4-26-1-9-1-23v-44l1-20 4-27 7-30 11-33 11-26 15-29 13-20 13-18 11-14 12-13 9-9 7-8 11-10 14-11 9-8 30-20 21-12 27-13 37-13 19-5 34-7z" fill="#979797"/>
<path transform="translate(987,712)" d="m0 0h23l20 1 26 4 28 7 26 9 23 11 15 9 11 7v4l-8 15-8 22-10 35-5 15-7 14-9 11-10 7-20 11-12 11-6 7-5 11-2 10v10l3 17 12 35 4 14 1 6v19l-3 10-7 9-10 6-4 1h-8l-6-3-6-9-3-7-2-13v-21l1-15v-32l-3-10-6-9-5-3-7 1-7 7-5 10-2 9v66l-4 19-7 20-10 20-13 20-13 18-7 12-2 4-12 3-10 5-9 8-8 14-6 15-5 22-2 19v34l-5-1-21-11-19-12-19-14-15-13-12-11-7-8-10-11-10-13-10-14-12-20-11-22-8-21-8-30-4-23-2-23v-36l2-24 5-25 6-22 8-21 7-15 8-16 13-20 12-16 11-13 4-5 5-5 15-14 8-7 18-14 15-10 21-12 16-8 36-12 20-5 27-4z"/>
<path transform="translate(1161,763)" d="m0 0 5 2 14 11 15 13 9 8 7 8 12 13 10 13 14 21 9 16 10 21 9 25 6 23 4 24 2 19v36l-3 29-5 25-3 14-2 1-11-6-26-14-29-16-24-13-18-10-22-12-3-1-1 6-9 16-12 22-2 5 14 7 23 13 21 11 23 13 21 11 23 13 9 5 2 3-10 16-7 11-6-1-25-14-29-16-24-13-21-12-27-15-8-4-2 6-9 16-11 20v2l23 12 23 13 32 17 23 13 18 10 7 4v3l-16 15-17 13-10 7-23 14-21 10-30 11-23 6-25 4-12 1h-45l-20-2-27-5-20-6-19-7-4-3-1-22 2-25 3-17 5-17 8-16 7-9 9-7 10-4 6-1-2 9-2 12v18l4 13 5 10 4 5 7 4 4 1h7l7-4 9-10 2-5 1-10-2-13-6-11-10-10-16-8-8-3 2-5 7-12 13-18 11-18 10-19 7-19 4-18 1-6v-30l-1-12v-15l3-17 6-10 6-5 7 1 6 7 3 6 1 5v76l4 13 6 9 5 4 3 1h7l10-3 7-5 7-10 3-11v-15l-3-15-12-36-5-21v-15l4-13 6-9 9-10 13-8 17-10 10-9 7-11 7-15 12-42 6-18 9-19z"/>
<path transform="translate(979,511)" d="m0 0h9l1 2 5 57v10l-21 2-1-3-2-32-1-9-8 44-1 1-16 1-3-5-13-35h-1l4 30v11l-12 2h-7l-1-1-4-43-1-13v-13l30-2 4 9 10 28 1 1 7-39 1-1z" fill="#979797"/>
<path transform="translate(865,841)" d="m0 0h1l2 19 5 21 5 12 6 8 11 8 10 4 25 5 17 3-2 2-18 1-23 5-14 7-10 9-7 14-6 25-2 14-2-3-3-19-6-21-5-9-8-9-14-7-19-5-13-2-12-1 4-2 24-4 18-5 12-7 5-4 7-11 5-15z" fill="#979797"/>
<path transform="translate(1410,1148)" d="m0 0 59 8 10 1 1 3-7 18-4 1-30-5h-5l6 4 17 11 9 6-6 17-2 3-22-3-16-2 10 7 18 11 4 4-7 18h-4l-46-32-10-7 2-5 6-17 14 1 23 4h5l-10-7-24-16 3-9 5-13z" fill="#979797"/>
<path transform="translate(1374,1249)" d="m0 0h8l13 4 11 8 6 7 4 8 1 4v8l-4 13-9 13-9 8-9 4h-15l-14-7-10-9-6-12v-14l4-11 6-9 6-7 10-6z" fill="#979797"/>
<path transform="translate(1046,516)" d="m0 0h14l10 2 12 6 7 8 4 9v19l-4 11-6 8-7 6-5 2-6 1h-15l-12-3-10-6-6-8-4-10v-15l4-13 7-9 9-6z" fill="#979797"/>
<path transform="translate(722,591)" d="m0 0h9l7 4 5 7v10l-2 5h11l6 4 5 6 1 4v8l-4 8-12 10-22 15-8 6-4-2-13-19-22-32-2-2v-3l19-13 17-12z" fill="#979797"/>
<path transform="translate(612,692)" d="m0 0h12l10 4 11 8 7 9 3 7v13l-8 16-14 18-6 8-8-6-18-14-14-11-15-11 2-5 11-14 9-11 8-7z" fill="#979797"/>
<path transform="translate(1410,738)" d="m0 0h3l9 16 10 17 5 11 1 7-3 9-7 7-8 3h-8l-9-3-9 14-6 9-1 3h-2l-10-18-1-4 14-21-1-7-6 1-16 9h-3l-9-16-1-3 28-16 27-16z" fill="#979797"/>
<path transform="translate(1314,1314)" d="m0 0 4 2 19 19 7 8 12 12 4 5 3 3-1 3-8 7-14 14-8 7-7 5-10 2-8-2-8-7-3-5-1-7 1-9-8-3-21-7 3-5h2v-2l8-7 3-3 7 1 16 6h9l1-4-7-8-9-9 2-4z" fill="#979797"/>
<path transform="translate(1131,532)" d="m0 0 5 1 32 11 12 6 6 7 2 5v9l-5 10-7 5-8 2 4 28v4l-10-3-13-5-1-2-2-24-2-3-7-2-3 11-5 12-9-2-11-4 2-9 14-39z" fill="#979797"/>
<path transform="translate(508,906)" d="m0 0h11l9 5 4 7 1 3 8-1 20-7h4l-4 23-8 3-18 6h-2l-1 8 24 4 1 4-3 18-39-6-29-5-1-3 7-40 3-9 5-6z" fill="#979797"/>
<path transform="translate(574,1165)" d="m0 0h3l7 15-1 6-17 35 5-1 21-9 5-1 7 15-1 4-16 7-27 12-17 8-3-1-5-11-2-6 11-23 7-15 1-3-16 8-13 6-3-1-6-14-1-4 29-13z" fill="#979797"/>
<path transform="translate(1338,665)" d="m0 0 10 1 12 6 8 7 7 10 4 8 1 4v11l-3 7-3 5-7-6-7-7-1-4 2-6-5-10-7-4h-8l-6 3-7 6-4 6-1 7 4 8 8 6h6v-4l-7-8 2-4 5-5 5 1 7 8 14 15-1 5-8 7-10 9-8 6-4-2-3-4 1-5 1-3-9-2-9-6-9-10-5-10-1-3v-11l4-9 6-8 7-7 8-5z" fill="#979797"/>
<path transform="translate(806,1417)" d="m0 0 10 4 1 6 13-1 10 2 12 5 10 9 4 8 1 11-3 13-7 13-4 5-10 6-4 1h-14l-8-2-14-7-8-7-5-9-1-8 1-6 8 1 12 5 3 9 5 4 7 2 8-1 5-5 5-10 1-4v-7l-3-6-10-5h-7l-5 2v3l12 4 1 3-4 10-2 1-24-9-9-3 1-5 10-26z" fill="#979797"/>
<path transform="translate(1249,1372)" d="m0 0 5 5 17 28 12 19 4 7-10 7-6 4h-3l-7-10-7-12-1-1-5 30-1 7-10 7-11 7h-2l3-21 3-16-6-2-36-18 1-3 19-12 16 8 9 5h2l4-12-1-4-6-9 2-4 14-9z" fill="#979797"/>
<path transform="translate(733,1375)" d="m0 0 6 2 14 9 13 8 19 12 1 2-11 18-12 19-13 21-12-6-19-12-20-12 1-5 5-8 1-2 6 2 14 9 11 7 4 1 2-5 1-4-5-2-21-13v-3l6-11 4 1 23 14 4-1 4-7-5-2-19-12-9-5z" fill="#979797"/>
<path transform="translate(1225,569)" d="m0 0 5 2 28 17 16 9 2 2-1 5-6 9-5-2-24-14-5-1-3 6v2l5 2 20 12 1 3-6 11-5-1-23-13-3-1-2 9 11 7 20 12-2 5-5 10-5-2-17-10-30-18-1-2 14-24 13-22z" fill="#979797"/>
<path transform="translate(553,762)" d="m0 0 6 2 8 4 1 2-15 29-1 4 5 3 4-1 13-26 6 2 7 3 1 2-11 23-2 5 6 4h3l14-27 3-6 14 7 1 2-12 22-15 30-5-1-40-20-17-9v-3l19-38z" fill="#979797"/>
<path transform="translate(1418,922)" d="m0 0 11 1 61 13 2 7 2 13v6l-10 6-54 29-2-3-2-15v-5l8-5-2-19-1-5-9-1-1-1z" fill="#979797"/>
<path transform="translate(1458,826)" d="m0 0 2 1 19 54-1 3-14 4-4-9-8-24v-2l-9 3 3 12 6 17v2l-11 4h-4l-10-29-10 2 4 13 7 20v5l-14 5-4-9-15-44-1-5 11-4 42-15z" fill="#979797"/>
<path transform="translate(535,1086)" d="m0 0h9l8 3 7 8 4 8 3 13v16l-5 10-9 6-4-1-4-15 1-5 3-1 2-7-2-8-2-4h-5l-1 2-1 23-3 12-8 7-4 2h-12l-7-4-6-9-5-12-1-6v-11l3-9 7-8 4-2h3l3 13v8l-4 3v7l3 7h5l2-6 1-23 3-8 5-6z" fill="#979797"/>
<path transform="translate(502 1e3)" d="m0 0h10l10 4 6 7 2 5 2 22 22 1v21l-56 2h-13l-1-15v-31l3-6 7-7z" fill="#979797"/>
<path transform="translate(941,1146)" d="m0 0 9 3 11 6 10 8 7 10 2 6 1 14-2 8-5 8-7 6-2 1h-9l-8-4-5-6-5-10-3-9-1-14 2-14 3-11z"/>
<path transform="translate(825,539)" d="m0 0 1 4-3 17-4 23v8l8 18 1 5-19 8-4-6-6-15-4-5-36-24-3-1v-2l19-9 7 1 17 13h2l3-26z" fill="#979797"/>
<path transform="translate(687,1335)" d="m0 0 8 6 9 8-6 7-7 8-9 10-11 12-1 3 13 12 2 4-10 11-5-2-7-7-8-7-16-15-10-9-5-4 2-4 8-9 4 1 11 10 5 2 9-10 7-8 12-14z" fill="#979797"/>
<path transform="translate(1481,1012)" d="m0 0h17v20l-3 48-17-1v-22l-32-2-19-1v-13l1-9h15l37 2z" fill="#979797"/>
<path transform="translate(618,1249)" d="m0 0 4 4 7 11 2 4-46 30-10 7-4-1-9-14-1-4 18-11 33-22z" fill="#979797"/>
<path transform="translate(513,849)" d="m0 0 66 22-2 9-4 12-9-2-57-19 1-7z" fill="#979797"/>
<path transform="translate(1052,532)" d="m0 0h8l7 4 4 5 1 4-1 13-5 10-7 4h-8l-7-4-4-7v-12l4-11 6-5z"/>
<path transform="translate(1370,1270)" d="m0 0h8l10 5 8 7 2 4v8l-4 7-8 5-9-1-11-7-6-8-1-2v-6l5-8z"/>
<path transform="translate(612,712)" d="m0 0 7 1 9 6 7 8 1 2v6l-5 8-3 3-4-1-18-14-7-6 2-5 5-5z"/>
<path transform="translate(510,928)" d="m0 0 8 1 2 2v9l-2 9-2 2-10-2-2-2 2-12 2-5z"/>
<path transform="translate(1407,765)" d="m0 0 5 1 6 11 1 5-4 5-5 1-5-5-5-8-1-4 5-4z"/>
<path transform="translate(1148,554)" d="m0 0 10 3 6 3 2 3-1 7-3 2-8-1-10-4-1-4 4-8z"/>
<path transform="translate(735,631)" d="m0 0 4 1 3 4-1 6-9 7-5 3-4-2-4-5 1-5z"/>
<path transform="translate(1326,1359)" d="m0 0 5 1 5 5-1 5-8 8-3 2h-5l-4-4-1-5 5-5z"/>
<path transform="translate(505,1023)" d="m0 0 8 1 2 4v12l-4 1h-8l-3-1-1-3v-8l3-5z"/>
<path transform="translate(718,611)" d="m0 0h5l2 4v5l-7 6-6 4-4-1-4-6v-4l11-7z"/>
<path transform="translate(1448,947)" d="m0 0 13 2 10 2v3l-17 8h-5l-1-1z"/>
</svg>
