<svg width="679.492" height="72.999" viewBox="0 0 679.492 72.999" xmlns="http://www.w3.org/2000/svg"><g id="svgGroup" stroke-linecap="round" fill-rule="evenodd" font-size="9pt" stroke="#fff" stroke-width="0.10mm" fill="#999" style=" stroke:#fff;stroke-width:0.10mm;fill:#999"><path d="M 51.123 10.889 L 54.199 10.693 L 73.73 58.105 L 92.725 11.572 A 70.021 70.021 0 0 0 93.456 9.615 Q 93.785 8.691 94.038 7.881 A 30.916 30.916 0 0 0 94.385 6.689 A 19.4 19.4 0 0 0 94.701 5.326 Q 94.825 4.681 94.88 4.111 A 8.873 8.873 0 0 0 94.922 3.271 A 8.581 8.581 0 0 0 94.879 2.426 A 9.419 9.419 0 0 0 94.873 2.368 Q 94.828 1.945 94.743 1.704 A 1.193 1.193 0 0 0 94.727 1.66 L 94.727 1.465 L 104.395 1.465 L 104.395 1.66 Q 103.418 2.734 102.271 5.078 A 105.073 105.073 0 0 0 101.358 6.994 Q 100.957 7.858 100.52 8.832 A 216.543 216.543 0 0 0 99.609 10.889 L 73.535 72.998 L 69.824 72.998 L 50.83 26.904 L 33.496 72.998 L 29.834 72.998 L 5.908 13.281 A 120.828 120.828 0 0 0 4.182 9.351 A 110.96 110.96 0 0 0 4.126 9.229 A 106.703 106.703 0 0 0 3.247 7.373 A 78.832 78.832 0 0 0 2.417 5.713 A 55.984 55.984 0 0 0 1.833 4.61 Q 1.54 4.071 1.269 3.607 A 27.834 27.834 0 0 0 0.952 3.076 A 35.289 35.289 0 0 0 0.663 2.613 Q 0.224 1.922 0 1.66 L 0 1.465 L 13.525 1.465 L 13.525 1.66 Q 13.445 2.103 13.431 2.38 A 2.173 2.173 0 0 0 13.428 2.49 L 13.428 3.174 A 16.896 16.896 0 0 0 13.571 5.325 A 20.597 20.597 0 0 0 13.794 6.689 A 16.983 16.983 0 0 0 14.158 8.157 Q 14.381 8.92 14.694 9.782 A 38.736 38.736 0 0 0 15.234 11.182 L 33.594 57.568 L 51.123 10.889 Z M 249.609 71.484 L 249.609 71.289 A 18.242 18.242 0 0 0 249.826 70.451 Q 249.914 70.074 250.001 69.648 A 37.234 37.234 0 0 0 250.171 68.75 A 30.271 30.271 0 0 0 250.362 67.512 Q 250.437 66.953 250.506 66.323 A 63.834 63.834 0 0 0 250.635 64.99 A 72.66 72.66 0 0 0 250.768 63.186 Q 250.817 62.383 250.857 61.498 A 135.484 135.484 0 0 0 250.928 59.644 A 176.916 176.916 0 0 0 250.987 57.17 Q 251.006 56.079 251.016 54.884 A 312.46 312.46 0 0 0 251.025 52.393 L 251.025 20.605 A 304.758 304.758 0 0 0 251.012 17.64 Q 250.989 15.292 250.928 13.354 A 133.296 133.296 0 0 0 250.841 11.146 Q 250.788 10.056 250.721 9.093 A 69.765 69.765 0 0 0 250.635 7.983 Q 250.501 6.431 250.334 5.233 A 28.751 28.751 0 0 0 250.171 4.199 A 36.101 36.101 0 0 0 249.966 3.133 Q 249.792 2.301 249.609 1.66 L 249.609 1.465 L 261.328 1.465 L 261.328 1.66 A 18.242 18.242 0 0 0 261.112 2.498 Q 261.023 2.876 260.937 3.301 A 37.234 37.234 0 0 0 260.767 4.199 Q 260.582 5.237 260.444 6.63 A 57.335 57.335 0 0 0 260.327 7.983 Q 260.21 9.544 260.115 11.498 A 208.007 208.007 0 0 0 260.034 13.354 Q 259.95 15.486 259.924 18.114 A 249.976 249.976 0 0 0 259.912 20.605 L 259.912 31.494 L 288.428 8.203 A 27.334 27.334 0 0 0 290.292 6.546 Q 292.134 4.737 292.814 3.189 A 4.288 4.288 0 0 0 293.213 1.465 L 306.934 1.465 L 306.934 1.66 A 16.656 16.656 0 0 0 303.532 2.889 A 21.862 21.862 0 0 0 301.099 4.272 A 56.776 56.776 0 0 0 298.053 6.415 A 77.267 77.267 0 0 0 294.824 8.984 L 269.629 30.078 L 299.951 63.379 Q 301.26 64.722 302.304 65.753 A 100.722 100.722 0 0 0 303.198 66.626 A 61.229 61.229 0 0 0 304.161 67.535 Q 304.639 67.976 305.068 68.35 A 30.338 30.338 0 0 0 305.566 68.774 Q 306.592 69.629 307.446 70.19 A 37.013 37.013 0 0 0 309.229 71.289 L 309.229 71.484 L 294.922 71.484 A 4.304 4.304 0 0 0 294.774 71.186 Q 294.582 70.831 294.263 70.361 A 16.641 16.641 0 0 0 293.643 69.51 A 20.618 20.618 0 0 0 293.188 68.945 A 46.425 46.425 0 0 0 292.261 67.867 A 53.924 53.924 0 0 0 291.87 67.432 Q 291.162 66.65 290.527 65.967 L 259.912 32.373 L 259.912 52.393 A 243.811 243.811 0 0 0 259.929 55.358 Q 259.944 56.532 259.97 57.603 A 137.468 137.468 0 0 0 260.034 59.644 Q 260.118 61.775 260.225 63.503 A 106.056 106.056 0 0 0 260.327 64.99 A 55.071 55.071 0 0 0 260.469 66.568 Q 260.546 67.301 260.636 67.933 A 24.989 24.989 0 0 0 260.767 68.75 A 36.101 36.101 0 0 0 260.971 69.817 Q 261.145 70.648 261.328 71.289 L 261.328 71.484 L 249.609 71.484 Z M 533.789 3.174 L 537.109 12.207 L 536.67 12.402 A 27.841 27.841 0 0 0 529.936 7.849 A 33.257 33.257 0 0 0 527.515 6.787 A 30.556 30.556 0 0 0 518.904 4.819 A 36.734 36.734 0 0 0 515.771 4.687 A 34.268 34.268 0 0 0 508.827 5.367 A 28.89 28.89 0 0 0 504.492 6.616 A 24.74 24.74 0 0 0 496.145 11.756 A 23.977 23.977 0 0 0 495.679 12.207 A 24.57 24.57 0 0 0 490.768 19.254 A 29.277 29.277 0 0 0 489.941 21.191 Q 487.891 26.514 487.891 33.301 A 50.505 50.505 0 0 0 488.772 42.888 A 43.735 43.735 0 0 0 489.844 47.241 A 34.315 34.315 0 0 0 493.029 54.651 A 29.72 29.72 0 0 0 495.654 58.447 A 27.018 27.018 0 0 0 505.298 65.894 A 28.048 28.048 0 0 0 512.741 68.139 A 37.822 37.822 0 0 0 518.799 68.604 A 26.953 26.953 0 0 0 524.365 68.018 Q 527.148 67.432 529.712 66.284 A 27.396 27.396 0 0 0 534.546 63.501 Q 536.816 61.865 538.672 59.766 L 539.209 60.107 L 535.303 70.068 A 39.055 39.055 0 0 1 530.429 71.581 A 47.782 47.782 0 0 1 527.222 72.241 A 52.692 52.692 0 0 1 518.311 72.998 A 54.314 54.314 0 0 1 508.253 72.101 A 44.825 44.825 0 0 1 501.782 70.386 A 40.097 40.097 0 0 1 492.897 66.053 A 35.099 35.099 0 0 1 488.892 62.988 A 33.409 33.409 0 0 1 480.493 51.489 A 34.618 34.618 0 0 1 477.678 40.581 A 41.992 41.992 0 0 1 477.49 36.572 A 35.334 35.334 0 0 1 478.687 27.441 A 36.153 36.153 0 0 1 482.178 18.896 A 35.053 35.053 0 0 1 487.842 11.45 A 36.332 36.332 0 0 1 495.532 5.566 A 38.611 38.611 0 0 1 503.45 2.146 A 43.909 43.909 0 0 1 505.054 1.685 Q 510.254 0.293 516.309 0.293 A 54.152 54.152 0 0 1 528.355 1.593 A 47.292 47.292 0 0 1 533.789 3.174 Z M 468.066 0.684 L 465.674 7.178 A 28.586 28.586 0 0 0 464.161 6.812 Q 463.382 6.645 462.508 6.495 A 49.771 49.771 0 0 0 461.914 6.396 Q 460.638 6.195 458.982 6.005 A 117.787 117.787 0 0 0 457.397 5.835 A 49.436 49.436 0 0 0 454.915 5.651 Q 453.643 5.588 452.229 5.572 A 85.188 85.188 0 0 0 451.27 5.566 A 46.439 46.439 0 0 0 450.325 5.577 Q 449.484 5.594 448.462 5.64 A 165.104 165.104 0 0 0 446.077 5.763 A 147.081 147.081 0 0 0 445.313 5.811 A 2384.969 2384.969 0 0 1 441.748 6.006 L 441.748 32.666 A 212.828 212.828 0 0 0 446.524 32.569 Q 448.798 32.495 450.826 32.373 A 328.259 328.259 0 0 0 450.83 32.373 A 377.18 377.18 0 0 0 453.698 32.19 Q 454.821 32.114 455.826 32.037 A 186.984 186.984 0 0 0 457.715 31.885 Q 460.568 31.633 462.845 31.309 A 65.188 65.188 0 0 0 463.574 31.201 L 462.061 38.281 A 364.22 364.22 0 0 0 455.176 37.451 A 158.337 158.337 0 0 0 452.014 37.128 A 201.178 201.178 0 0 0 448.584 36.841 A 94.176 94.176 0 0 0 443.402 36.589 A 82.424 82.424 0 0 0 441.748 36.572 L 441.748 67.188 A 120.26 120.26 0 0 0 447.278 67.065 A 93.121 93.121 0 0 0 452.344 66.699 Q 457.178 66.211 460.791 65.576 A 89.293 89.293 0 0 0 464.807 64.832 A 69.177 69.177 0 0 0 468.457 63.965 L 467.041 71.875 A 20.126 20.126 0 0 0 466.711 71.851 Q 466.334 71.825 465.8 71.8 A 94.047 94.047 0 0 0 465.283 71.777 A 290.569 290.569 0 0 0 464.044 71.729 A 395.53 395.53 0 0 0 462.671 71.68 A 152.46 152.46 0 0 0 461.194 71.637 A 176.176 176.176 0 0 0 459.644 71.606 A 1765.373 1765.373 0 0 1 458.099 71.582 A 1488.258 1488.258 0 0 1 456.641 71.558 A 630.135 630.135 0 0 1 455.462 71.536 Q 454.924 71.526 454.441 71.516 A 363.774 363.774 0 0 1 454.126 71.509 A 179.205 179.205 0 0 0 453.615 71.498 Q 452.905 71.484 452.539 71.484 L 431.445 71.484 L 431.445 71.289 A 18.242 18.242 0 0 0 431.662 70.451 Q 431.75 70.074 431.837 69.648 A 37.234 37.234 0 0 0 432.007 68.75 A 30.271 30.271 0 0 0 432.198 67.512 Q 432.273 66.953 432.341 66.323 A 63.834 63.834 0 0 0 432.471 64.99 A 72.66 72.66 0 0 0 432.603 63.186 Q 432.653 62.383 432.693 61.498 A 135.484 135.484 0 0 0 432.764 59.644 A 176.916 176.916 0 0 0 432.823 57.17 Q 432.842 56.079 432.852 54.884 A 312.46 312.46 0 0 0 432.861 52.393 L 432.861 20.605 A 304.758 304.758 0 0 0 432.848 17.64 Q 432.825 15.292 432.764 13.354 A 133.296 133.296 0 0 0 432.677 11.146 Q 432.624 10.056 432.557 9.093 A 69.765 69.765 0 0 0 432.471 7.983 Q 432.337 6.431 432.169 5.233 A 28.751 28.751 0 0 0 432.007 4.199 A 36.101 36.101 0 0 0 431.802 3.133 Q 431.628 2.301 431.445 1.66 L 431.445 1.465 A 1498.61 1498.61 0 0 0 443.579 1.416 A 1968.866 1968.866 0 0 0 449.359 1.361 A 1500.377 1500.377 0 0 0 454.639 1.294 Q 459.668 1.221 463.232 1.074 Q 466.317 0.947 467.683 0.748 A 8.771 8.771 0 0 0 468.066 0.684 Z M 200.83 41.406 L 200.83 52.393 A 243.811 243.811 0 0 0 200.847 55.358 Q 200.862 56.532 200.888 57.603 A 137.468 137.468 0 0 0 200.952 59.644 Q 201.036 61.775 201.143 63.503 A 106.056 106.056 0 0 0 201.245 64.99 A 55.071 55.071 0 0 0 201.387 66.568 Q 201.464 67.301 201.554 67.933 A 24.989 24.989 0 0 0 201.685 68.75 A 36.101 36.101 0 0 0 201.889 69.817 Q 202.063 70.648 202.246 71.289 L 202.246 71.484 L 190.527 71.484 L 190.527 71.289 A 18.242 18.242 0 0 0 190.744 70.451 Q 190.832 70.074 190.919 69.648 A 37.234 37.234 0 0 0 191.089 68.75 A 26.992 26.992 0 0 0 191.277 67.512 Q 191.349 66.953 191.412 66.323 A 56.837 56.837 0 0 0 191.528 64.99 Q 191.646 63.446 191.74 61.51 A 203.891 203.891 0 0 0 191.821 59.668 Q 191.905 57.553 191.931 54.907 A 254.073 254.073 0 0 0 191.943 52.393 L 191.943 20.605 A 243.811 243.811 0 0 0 191.926 17.64 Q 191.912 16.466 191.886 15.395 A 137.468 137.468 0 0 0 191.821 13.354 Q 191.737 11.223 191.63 9.495 A 106.056 106.056 0 0 0 191.528 8.008 Q 191.357 5.762 191.089 4.224 A 36.06 36.06 0 0 0 190.885 3.145 Q 190.781 2.644 190.675 2.215 A 16.388 16.388 0 0 0 190.527 1.66 L 190.527 1.465 L 192.578 1.66 A 21.422 21.422 0 0 0 193.561 1.74 A 29.223 29.223 0 0 0 194.653 1.782 A 110.126 110.126 0 0 0 196.717 1.806 A 120.661 120.661 0 0 0 197.021 1.807 A 21.382 21.382 0 0 0 198.343 1.761 Q 199.716 1.676 201.558 1.428 A 75.07 75.07 0 0 0 202.173 1.343 A 39.083 39.083 0 0 1 204.616 1.079 Q 205.882 0.979 207.341 0.929 A 91.075 91.075 0 0 1 210.449 0.879 A 30.349 30.349 0 0 1 216.032 1.375 A 25.634 25.634 0 0 1 219.116 2.148 A 21.264 21.264 0 0 1 223.99 4.383 A 18.782 18.782 0 0 1 226.025 5.859 A 16.912 16.912 0 0 1 230.591 11.841 A 17.671 17.671 0 0 1 232.059 17.093 A 22.383 22.383 0 0 1 232.227 19.873 A 24.081 24.081 0 0 1 231.874 24.067 A 20.36 20.36 0 0 1 231.323 26.392 A 20.428 20.428 0 0 1 229.277 31.059 A 18.861 18.861 0 0 1 228.784 31.836 A 19.822 19.822 0 0 1 224.854 36.157 A 22.691 22.691 0 0 1 219.727 39.307 L 236.865 63.379 Q 237.956 64.931 238.921 66.123 A 34.461 34.461 0 0 0 239.233 66.504 A 31.758 31.758 0 0 0 240.291 67.713 Q 240.825 68.291 241.333 68.774 A 16.594 16.594 0 0 0 242.286 69.617 Q 242.768 70.01 243.232 70.317 A 10.119 10.119 0 0 0 243.262 70.337 A 8.851 8.851 0 0 0 244.802 71.151 A 8.042 8.042 0 0 0 245.166 71.289 L 245.166 71.484 L 231.055 71.484 A 4.429 4.429 0 0 0 230.904 70.862 Q 230.702 70.214 230.276 69.359 A 18.437 18.437 0 0 0 230.103 69.019 A 26.291 26.291 0 0 0 228.487 66.346 A 29.155 29.155 0 0 0 228.223 65.967 L 210.938 41.602 A 104.222 104.222 0 0 1 208.691 41.772 Q 207.568 41.846 206.396 41.846 Q 205.029 41.846 203.638 41.748 A 28.093 28.093 0 0 1 200.83 41.406 Z M 364.258 3.467 L 363.916 12.598 L 362.842 12.598 Q 362.451 11.475 361.597 10.059 A 11.046 11.046 0 0 0 360.168 8.192 A 13.395 13.395 0 0 0 359.351 7.397 A 11.091 11.091 0 0 0 357.272 5.942 A 13.817 13.817 0 0 0 355.981 5.322 A 10.231 10.231 0 0 0 353.699 4.678 Q 352.657 4.504 351.476 4.493 A 17.175 17.175 0 0 0 351.318 4.492 A 13.322 13.322 0 0 0 349.093 4.67 A 10.08 10.08 0 0 0 347.07 5.225 A 8.975 8.975 0 0 0 344.989 6.369 A 7.861 7.861 0 0 0 343.97 7.275 Q 342.725 8.594 342.09 10.4 A 11.186 11.186 0 0 0 341.53 12.94 A 13.921 13.921 0 0 0 341.455 14.404 Q 341.455 17.92 343.433 21.118 A 35.896 35.896 0 0 0 346.296 25.087 A 44.289 44.289 0 0 0 348.389 27.441 A 115.989 115.989 0 0 0 353.551 32.52 A 130.386 130.386 0 0 0 354.834 33.691 A 80.779 80.779 0 0 1 361.279 40.186 A 37.985 37.985 0 0 1 365.459 45.87 A 34.388 34.388 0 0 1 366.235 47.241 Q 368.213 50.928 368.213 55.176 A 19.375 19.375 0 0 1 367.255 61.123 A 21.938 21.938 0 0 1 367.114 61.548 A 16.443 16.443 0 0 1 363.721 67.285 A 15.906 15.906 0 0 1 360.042 70.267 A 20.136 20.136 0 0 1 357.812 71.411 A 17.967 17.967 0 0 1 353.723 72.626 Q 351.827 72.963 349.668 72.995 A 30.683 30.683 0 0 1 349.219 72.998 A 27.187 27.187 0 0 1 345.034 72.685 A 24.205 24.205 0 0 1 343.921 72.485 A 36.748 36.748 0 0 1 340.93 71.749 A 30.259 30.259 0 0 1 339.282 71.216 A 34.169 34.169 0 0 1 337.268 70.428 A 26.421 26.421 0 0 1 335.474 69.58 A 39.305 39.305 0 0 1 334.296 68.942 Q 333.756 68.636 333.3 68.35 A 17.935 17.935 0 0 1 332.715 67.969 L 333.838 57.178 L 335.059 57.178 A 15.579 15.579 0 0 0 336.816 61.548 Q 338.037 63.623 339.819 65.21 A 14.343 14.343 0 0 0 343.896 67.749 A 12.6 12.6 0 0 0 347.833 68.662 A 14.982 14.982 0 0 0 348.926 68.701 A 14.075 14.075 0 0 0 351.358 68.5 A 10.995 10.995 0 0 0 353.394 67.944 A 10.513 10.513 0 0 0 355.897 66.59 A 9.457 9.457 0 0 0 356.787 65.845 A 9.073 9.073 0 0 0 358.96 62.646 A 10.34 10.34 0 0 0 359.69 59.406 A 12.231 12.231 0 0 0 359.717 58.594 A 14.759 14.759 0 0 0 359.149 54.454 A 13.363 13.363 0 0 0 358.594 52.905 A 22.412 22.412 0 0 0 355.64 47.949 Q 353.809 45.605 351.489 43.408 Q 349.17 41.211 346.729 38.989 Q 344.287 36.768 341.968 34.424 A 36.612 36.612 0 0 1 337.817 29.419 A 25.687 25.687 0 0 1 334.863 23.706 Q 333.74 20.654 333.74 16.992 A 17.242 17.242 0 0 1 334.211 12.892 A 14.55 14.55 0 0 1 335.229 10.034 A 16.684 16.684 0 0 1 339.185 4.736 A 17.636 17.636 0 0 1 344.775 1.367 Q 347.9 0.195 351.221 0.195 A 26.672 26.672 0 0 1 353.844 0.319 A 21.078 21.078 0 0 1 355.713 0.586 A 34.237 34.237 0 0 1 357.66 1.013 A 25.636 25.636 0 0 1 359.399 1.514 Q 360.805 1.975 361.904 2.437 A 22.586 22.586 0 0 1 362.256 2.588 Q 363.348 3.068 364.088 3.393 A 564.788 564.788 0 0 0 364.258 3.467 Z M 636.475 71.484 L 623.096 71.484 L 623.096 71.289 Q 623.193 71.045 623.242 70.557 Q 623.288 70.101 623.291 69.73 A 6.411 6.411 0 0 0 623.291 69.678 Q 623.291 68.164 622.876 66.333 A 17.262 17.262 0 0 0 622.501 64.967 Q 622.28 64.265 621.977 63.465 A 42.941 42.941 0 0 0 621.289 61.768 L 615.381 48.486 Q 613.287 48.412 610.135 48.394 A 365.743 365.743 0 0 0 608.105 48.389 L 598.291 48.389 L 590.845 48.389 A 227.069 227.069 0 0 0 587.483 48.412 Q 585.838 48.437 584.375 48.486 L 578.76 61.377 A 228.895 228.895 0 0 0 578.003 63.269 A 293.842 293.842 0 0 0 577.197 65.332 A 11.972 11.972 0 0 0 576.367 69.678 A 6.809 6.809 0 0 0 576.38 70.106 Q 576.392 70.306 576.418 70.478 A 3.011 3.011 0 0 0 576.465 70.728 Q 576.562 71.139 576.659 71.287 A 0.421 0.421 0 0 0 576.66 71.289 L 576.66 71.484 L 566.699 71.484 L 566.699 71.289 A 7.303 7.303 0 0 0 567.213 70.674 Q 567.711 70.014 568.32 68.996 A 38.292 38.292 0 0 0 568.896 67.993 Q 569.803 66.365 570.825 64.172 A 101.81 101.81 0 0 0 571.777 62.061 L 599.756 0 L 603.662 0 L 630.176 59.668 A 85.911 85.911 0 0 0 632.104 63.745 A 107.91 107.91 0 0 0 633.075 65.619 A 78.547 78.547 0 0 0 633.984 67.285 Q 634.863 68.848 635.547 69.922 Q 636.23 70.996 636.475 71.289 L 636.475 71.484 Z M 152.012 1.439 A 43.784 43.784 0 0 0 141.846 0.293 A 40.257 40.257 0 0 0 139.18 0.38 A 34.303 34.303 0 0 0 131.714 1.685 A 37.076 37.076 0 0 0 131.055 1.886 A 33.026 33.026 0 0 0 123.12 5.566 A 32.763 32.763 0 0 0 116.235 11.45 A 35.838 35.838 0 0 0 111.157 18.896 Q 109.082 22.949 108.008 27.441 A 39.125 39.125 0 0 0 106.934 36.572 A 44.16 44.16 0 0 0 107.158 41.069 A 36.112 36.112 0 0 0 109.766 51.489 A 33.783 33.783 0 0 0 117.627 62.988 A 33.487 33.487 0 0 0 119.579 64.706 A 35.696 35.696 0 0 0 129.565 70.386 A 38.777 38.777 0 0 0 134.463 71.873 A 44.566 44.566 0 0 0 144.629 72.998 A 40.187 40.187 0 0 0 147.293 72.911 A 33.998 33.998 0 0 0 154.736 71.606 A 37.645 37.645 0 0 0 155.319 71.428 A 33.645 33.645 0 0 0 163.306 67.749 A 32.718 32.718 0 0 0 170.215 61.89 A 35.864 35.864 0 0 0 175.317 54.492 A 37.178 37.178 0 0 0 178.467 45.996 A 39.125 39.125 0 0 0 179.541 36.865 A 44.114 44.114 0 0 0 179.364 32.877 A 36.475 36.475 0 0 0 176.709 21.973 A 33.985 33.985 0 0 0 168.848 10.425 Q 163.818 5.615 156.909 2.954 A 38.249 38.249 0 0 0 152.012 1.439 Z M 652.783 20.605 L 652.783 67.188 A 120.26 120.26 0 0 0 658.313 67.065 A 93.121 93.121 0 0 0 663.379 66.699 Q 668.213 66.211 671.826 65.576 A 89.293 89.293 0 0 0 675.842 64.832 A 69.177 69.177 0 0 0 679.492 63.965 L 678.076 71.875 A 20.126 20.126 0 0 0 677.747 71.851 Q 677.369 71.825 676.835 71.8 A 94.047 94.047 0 0 0 676.318 71.777 A 290.569 290.569 0 0 0 675.079 71.729 A 395.53 395.53 0 0 0 673.706 71.68 A 152.46 152.46 0 0 0 672.229 71.637 A 176.176 176.176 0 0 0 670.679 71.606 A 1765.373 1765.373 0 0 1 669.135 71.582 A 1488.258 1488.258 0 0 1 667.676 71.558 A 630.135 630.135 0 0 1 666.498 71.536 Q 665.959 71.526 665.476 71.516 A 363.774 363.774 0 0 1 665.161 71.509 A 179.205 179.205 0 0 0 664.65 71.498 Q 663.94 71.484 663.574 71.484 L 642.48 71.484 L 642.48 71.289 A 18.242 18.242 0 0 0 642.697 70.451 Q 642.785 70.074 642.872 69.648 A 37.234 37.234 0 0 0 643.042 68.75 A 30.271 30.271 0 0 0 643.233 67.512 Q 643.308 66.953 643.377 66.323 A 63.834 63.834 0 0 0 643.506 64.99 A 72.66 72.66 0 0 0 643.639 63.186 Q 643.688 62.383 643.728 61.498 A 135.484 135.484 0 0 0 643.799 59.644 A 176.916 176.916 0 0 0 643.858 57.17 Q 643.877 56.079 643.887 54.884 A 312.46 312.46 0 0 0 643.896 52.393 L 643.896 20.605 A 304.758 304.758 0 0 0 643.883 17.64 Q 643.86 15.292 643.799 13.354 A 133.296 133.296 0 0 0 643.712 11.146 Q 643.659 10.056 643.592 9.093 A 69.765 69.765 0 0 0 643.506 7.983 Q 643.372 6.431 643.205 5.233 A 28.751 28.751 0 0 0 643.042 4.199 A 36.101 36.101 0 0 0 642.837 3.133 Q 642.664 2.301 642.48 1.66 L 642.48 1.465 L 654.199 1.465 L 654.199 1.66 A 18.242 18.242 0 0 0 653.983 2.498 Q 653.894 2.876 653.808 3.301 A 37.234 37.234 0 0 0 653.638 4.199 Q 653.454 5.237 653.315 6.63 A 57.335 57.335 0 0 0 653.198 7.983 Q 653.081 9.544 652.986 11.498 A 208.007 208.007 0 0 0 652.905 13.354 Q 652.821 15.486 652.795 18.114 A 249.976 249.976 0 0 0 652.783 20.605 Z M 380.225 1.66 L 380.225 1.465 A 221.096 221.096 0 0 0 381.744 1.611 A 254.381 254.381 0 0 0 382.275 1.66 A 21.422 21.422 0 0 0 383.258 1.74 A 29.223 29.223 0 0 0 384.351 1.782 A 110.126 110.126 0 0 0 386.415 1.806 A 120.661 120.661 0 0 0 386.719 1.807 A 21.382 21.382 0 0 0 388.04 1.761 Q 389.413 1.676 391.255 1.428 A 75.07 75.07 0 0 0 391.87 1.343 A 39.083 39.083 0 0 1 394.313 1.079 Q 395.58 0.979 397.038 0.929 A 91.075 91.075 0 0 1 400.146 0.879 A 28.163 28.163 0 0 1 405.862 1.44 A 24.1 24.1 0 0 1 408.813 2.246 A 20.241 20.241 0 0 1 414.391 5.157 A 18.838 18.838 0 0 1 415.723 6.25 A 18.262 18.262 0 0 1 420.288 12.671 A 19.681 19.681 0 0 1 421.694 17.811 A 25.408 25.408 0 0 1 421.924 21.289 A 27.381 27.381 0 0 1 421.392 26.813 A 20.4 20.4 0 0 1 419.336 32.52 Q 416.748 37.256 412.402 40.186 A 25.481 25.481 0 0 1 404.513 43.694 A 30.353 30.353 0 0 1 402.393 44.165 Q 396.749 45.211 390.573 44.294 A 42.145 42.145 0 0 1 390.527 44.287 L 390.527 52.393 A 243.811 243.811 0 0 0 390.545 55.358 Q 390.559 56.532 390.585 57.603 A 137.468 137.468 0 0 0 390.649 59.644 Q 390.733 61.775 390.84 63.503 A 106.056 106.056 0 0 0 390.942 64.99 A 55.071 55.071 0 0 0 391.084 66.568 Q 391.161 67.301 391.252 67.933 A 24.989 24.989 0 0 0 391.382 68.75 A 36.101 36.101 0 0 0 391.587 69.817 Q 391.76 70.648 391.943 71.289 L 391.943 71.484 L 380.225 71.484 L 380.225 71.289 A 18.242 18.242 0 0 0 380.441 70.451 Q 380.53 70.074 380.616 69.648 A 37.234 37.234 0 0 0 380.786 68.75 A 30.271 30.271 0 0 0 380.977 67.512 Q 381.053 66.953 381.121 66.323 A 63.834 63.834 0 0 0 381.25 64.99 A 72.66 72.66 0 0 0 381.383 63.186 Q 381.432 62.383 381.472 61.498 A 135.484 135.484 0 0 0 381.543 59.644 A 176.916 176.916 0 0 0 381.602 57.17 Q 381.622 56.079 381.631 54.884 A 312.46 312.46 0 0 0 381.641 52.393 L 381.641 20.605 A 304.758 304.758 0 0 0 381.627 17.64 Q 381.604 15.292 381.543 13.354 A 133.296 133.296 0 0 0 381.456 11.146 Q 381.404 10.056 381.336 9.093 A 69.765 69.765 0 0 0 381.25 7.983 Q 381.116 6.431 380.949 5.233 A 28.751 28.751 0 0 0 380.786 4.199 A 36.101 36.101 0 0 0 380.581 3.133 Q 380.408 2.301 380.225 1.66 Z M 144.629 68.604 A 26.139 26.139 0 0 0 151.041 67.841 A 22.657 22.657 0 0 0 154.541 66.65 A 21.621 21.621 0 0 0 162.28 60.986 A 24.738 24.738 0 0 0 166.047 55.148 A 30.896 30.896 0 0 0 167.334 51.929 A 33.503 33.503 0 0 0 168.795 45.458 A 44.488 44.488 0 0 0 169.141 39.795 A 57.276 57.276 0 0 0 168.468 30.851 A 47.759 47.759 0 0 0 167.407 25.854 Q 165.674 19.434 162.256 14.722 A 24.258 24.258 0 0 0 153.735 7.349 A 23.178 23.178 0 0 0 146.506 5.031 A 30.471 30.471 0 0 0 141.846 4.687 A 26.464 26.464 0 0 0 135.452 5.436 A 22.858 22.858 0 0 0 131.934 6.616 Q 127.441 8.545 124.194 12.207 Q 120.947 15.869 119.141 21.191 A 33.212 33.212 0 0 0 117.68 27.642 A 44.377 44.377 0 0 0 117.334 33.301 Q 117.334 40.771 119.043 47.241 A 36.949 36.949 0 0 0 121.506 53.971 A 30.145 30.145 0 0 0 124.17 58.447 A 24.565 24.565 0 0 0 132.715 65.894 A 23.14 23.14 0 0 0 140.159 68.283 A 30.148 30.148 0 0 0 144.629 68.604 Z M 548.584 71.484 L 548.584 71.289 Q 548.785 70.584 548.964 69.648 A 32.162 32.162 0 0 0 549.121 68.75 A 36.642 36.642 0 0 0 549.297 67.512 Q 549.368 66.953 549.434 66.323 A 77.642 77.642 0 0 0 549.561 64.99 A 72.66 72.66 0 0 0 549.693 63.186 Q 549.743 62.383 549.783 61.498 A 135.484 135.484 0 0 0 549.854 59.644 A 176.916 176.916 0 0 0 549.913 57.17 Q 549.932 56.079 549.942 54.884 A 312.46 312.46 0 0 0 549.951 52.393 L 549.951 20.605 A 304.758 304.758 0 0 0 549.937 17.64 Q 549.915 15.292 549.854 13.354 A 133.296 133.296 0 0 0 549.767 11.146 Q 549.714 10.056 549.647 9.093 A 69.765 69.765 0 0 0 549.561 7.983 Q 549.365 5.713 549.121 4.199 A 31.188 31.188 0 0 0 548.931 3.133 Q 548.831 2.626 548.724 2.19 A 14.632 14.632 0 0 0 548.584 1.66 L 548.584 1.465 L 560.254 1.465 L 560.254 1.66 A 18.242 18.242 0 0 0 560.038 2.498 Q 559.949 2.876 559.863 3.301 A 37.234 37.234 0 0 0 559.692 4.199 Q 559.508 5.237 559.37 6.63 A 57.335 57.335 0 0 0 559.253 7.983 Q 559.135 9.544 559.041 11.498 A 208.007 208.007 0 0 0 558.96 13.354 Q 558.876 15.486 558.85 18.114 A 249.976 249.976 0 0 0 558.838 20.605 L 558.838 52.393 A 243.811 243.811 0 0 0 558.855 55.358 Q 558.869 56.532 558.896 57.603 A 137.468 137.468 0 0 0 558.96 59.644 Q 559.044 61.775 559.151 63.503 A 106.056 106.056 0 0 0 559.253 64.99 A 55.071 55.071 0 0 0 559.394 66.568 Q 559.472 67.301 559.562 67.933 A 24.989 24.989 0 0 0 559.692 68.75 A 36.101 36.101 0 0 0 559.897 69.817 Q 560.071 70.648 560.254 71.289 L 560.254 71.484 L 548.584 71.484 Z M 390.527 5.273 L 390.527 40.479 Q 395.046 41.308 398.846 40.723 A 19.391 19.391 0 0 0 399.292 40.649 Q 403.271 39.941 406.128 37.622 A 14.106 14.106 0 0 0 409.455 33.66 A 18.217 18.217 0 0 0 410.571 31.348 A 20.445 20.445 0 0 0 411.684 27.402 Q 412.036 25.474 412.127 23.256 A 38.536 38.536 0 0 0 412.158 21.68 A 32.745 32.745 0 0 0 411.924 17.677 A 25.508 25.508 0 0 0 411.328 14.478 A 18.749 18.749 0 0 0 410.316 11.518 A 14.219 14.219 0 0 0 408.862 8.96 Q 407.227 6.689 404.736 5.444 Q 402.246 4.199 398.926 4.199 Q 396.826 4.199 395.264 4.37 A 53.422 53.422 0 0 0 394.16 4.502 Q 393.729 4.558 393.346 4.617 A 26.071 26.071 0 0 0 392.627 4.736 A 21.155 21.155 0 0 0 391.745 4.924 Q 391.049 5.089 390.527 5.273 Z M 200.83 5.273 L 200.83 37.598 A 20.958 20.958 0 0 0 203.516 38.013 A 30.329 30.329 0 0 0 205.673 38.13 A 26.985 26.985 0 0 0 206.152 38.135 Q 209.814 38.135 212.842 37.036 Q 215.869 35.938 217.993 33.691 A 14.458 14.458 0 0 0 220.464 30.084 A 18.168 18.168 0 0 0 221.289 28.101 A 19.847 19.847 0 0 0 222.168 24.469 Q 222.461 22.51 222.461 20.264 A 27.922 27.922 0 0 0 222.227 16.566 A 21.627 21.627 0 0 0 221.631 13.623 A 16.085 16.085 0 0 0 220.561 10.792 A 12.653 12.653 0 0 0 219.165 8.569 A 11.058 11.058 0 0 0 215.039 5.347 A 12.194 12.194 0 0 0 211.882 4.403 A 16.495 16.495 0 0 0 209.229 4.199 Q 205.859 4.199 203.857 4.541 Q 202.207 4.823 201.221 5.138 A 7.539 7.539 0 0 0 200.83 5.273 Z M 586.182 44.189 L 591.455 44.189 A 709.248 709.248 0 0 0 597.266 44.165 A 16664.897 16664.897 0 0 0 603.101 44.116 A 7957.963 7957.963 0 0 0 607.262 44.08 A 7050.843 7050.843 0 0 0 608.594 44.067 A 416.707 416.707 0 0 0 611.108 44.037 A 306.778 306.778 0 0 0 613.379 43.994 L 599.658 12.988 L 586.182 44.189 Z M 312.622 65.161 A 5.016 5.016 0 0 0 312.207 67.188 A 5.909 5.909 0 0 0 312.214 67.47 A 5.052 5.052 0 0 0 312.622 69.263 A 5.341 5.341 0 0 0 313.745 70.923 Q 314.453 71.631 315.405 72.046 A 5.016 5.016 0 0 0 317.432 72.461 A 6.614 6.614 0 0 0 317.502 72.461 A 5.092 5.092 0 0 0 321.191 70.947 A 5.054 5.054 0 0 0 322.333 69.236 A 5.481 5.481 0 0 0 322.705 67.187 Q 322.705 66.113 322.29 65.161 A 5.341 5.341 0 0 0 321.167 63.501 Q 320.459 62.793 319.507 62.378 A 4.823 4.823 0 0 0 318.942 62.173 A 5.319 5.319 0 0 0 317.432 61.963 Q 316.357 61.963 315.405 62.378 A 5.341 5.341 0 0 0 313.745 63.501 Q 313.037 64.209 312.622 65.161 Z" vector-effect="non-scaling-stroke"/></g></svg>